# xmcd CD database file
#
# Track frame offsets:
#	150
#	20107
#	50219
#	77035
#	102519
#	126002
#	147736
#	171366
#	197554
#	215845
#	243565
#	258035
#	281690
#	304159
#	328902
#
# Disc length: 4719 seconds
#
# Revision: 0
# Processed by: cddbd v1.5.2PL0 Copyright (c) Steve Scherf et al.
# Submitted via: CDex 1.51
#
DISCID=f1126d0f
DTITLE=The Salty Dog Jazz Band - Live At The Sabre Room
DYEAR=1900
DGENRE=Jazz
TTITLE0=That's A Plenty
TTITLE1=Friendless Blues
TTITLE2=Cakewalking Babies
TTITLE3=1919 Rag
TTITLE4=Melancholy Blues
TTITLE5=Big Bear Stomp
TTITLE6=Blues My Naughty Sweetie Gives To Me
TTITLE7=Ace In The Hole
TTITLE8=Canal Street Blues
TTITLE9=Beale Street Blues
TTITLE10=Snake Rag
TTITLE11=Weary Blues
TTITLE12=Working Man Blues
TTITLE13=Sweet Georgia Brown
TTITLE14=Ain't Gonna Give None
EXTD=
EXTT0=
EXTT1=
EXTT2=
EXTT3=
EXTT4=
EXTT5=
EXTT6=
EXTT7=
EXTT8=
EXTT9=
EXTT10=
EXTT11=
EXTT12=
EXTT13=
EXTT14=
PLAYORDER=
